<svg xmlns="http://www.w3.org/2000/svg" viewBox="0 0 3843 3838"><g fill-rule="evenodd"><path fill="#e0f2ff" d="M3840 1919a1919 1919 0 1 0-3838 0 1919 1919 0 0 0 3838 0Z"/><path fill="#aaccb5" d="m1217 3345-1-394-29-22a8617 8617 0 0 0-107-76 980 980 0 0 1-74-20l-7-37c-5-32-6-37-9-40a1912 1912 0 0 0-53-68 229714 229714 0 0 0-116-146c-1-1 0-5 1-13l9-40c7-29 7-29 8-59a15104 15104 0 0 1 4-87c1-8 1-8 10-15a62381 62381 0 0 1 108-77l-1-14a2094 2094 0 0 0-15-125c-1-4-2-4-6-4a1282 1282 0 0 0-65-6 26411 26411 0 0 0-88-6c-15-1-15-1-20-6a1125 1125 0 0 1-47-54 493 493 0 0 0-31-35 988 988 0 0 0-39-45l-4-5-3-3-2-2-3-4c-3-4-5-4-18-8a79595 79595 0 0 1-99-26 61915 61915 0 0 0-43-8v-12a1157 1157 0 0 1 3-40l-3-4a4524 4524 0 0 0-48-8c-19-3-19-3-22-1l-3 4-1 13c0 11 0 11-4 11a4749 4749 0 0 1-156-39l-39-9-14-22a80132 80132 0 0 1-63-97c-3-5-3-5 1-13a6102 6102 0 0 1 22-40c2-4 2-7 2-11 0-5 0-7-3-11a1778 1778 0 0 0-71-105l-12-17c-2-3-2-3-10-1h-8l2-13a2037 2037 0 0 1 130-377 2171 2171 0 0 1 182-310 2314 2314 0 0 1 176-209 2018 2018 0 0 1 401-319 1927 1927 0 0 1 117-64l3-1 1 1 1 11 2 13c0 2 1 3 3 5h39a7707 7707 0 0 1 97-5l9-18c6-16 6-17 9-18a401 401 0 0 1 56-3 2075 2075 0 0 0 37-4l5-17 5-23c1-7 1-8-1-12-2-3-3-4-6-5a226 226 0 0 0-32-6l-12-2c-2-1-2-2-2-5 1-3 1-3 12-8a1533 1533 0 0 1 190-56c4 0 4 0 5 5l3 7a452 452 0 0 1-48 47 1924 1924 0 0 1-24 22c-5 4-6 6-7 9l3 20a7782 7782 0 0 0 10 35 8188 8188 0 0 0 82 12c3-1 3-2 3-13a575 575 0 0 0-3-67c-1-22-1-23 1-24a494 494 0 0 1 42-23 4139 4139 0 0 0 31-16c8-5 9-5 22-6a41329 41329 0 0 1 128-14c10 0 10 0 36 11a12971 12971 0 0 1 183 82l1 41c0 37 0 39 2 41l23 7a9544 9544 0 0 1 41 11c2 1 2 1-3 12a2511 2511 0 0 1-28 51c-1 2-2 2-49 2-47 1-47 1-50 5a357 357 0 0 0-18 47l-6 13c-3 9-3 9-7 9a488 488 0 0 1-43-11 1909 1909 0 0 1-92-22 15755 15755 0 0 1-77-19c-1-1-1-1 1-3l13-8a1778 1778 0 0 1 94-50 1682 1682 0 0 0 41-24c1-2 2-5 2-12 0-9 0-9-5-14a289 289 0 0 0-22-20 2152 2152 0 0 0-22-18l-12 1a3330 3330 0 0 0-139 19l-9 9a2619 2619 0 0 1-39 42c-9 9-9 9-15 9a4053 4053 0 0 1-62 8l-2 6 1 12 3 12c0 3 1 3 7 6l12 6c5 2 5 2 5 7l-1 7-25 4-27 4c-3 1-4 2-5 5l-3 16c0 7-2 13-2 13a389 389 0 0 1-54 2l-5-27c-4-26-4-27-7-30-1-2-4-4-6-4h-9a959 959 0 0 0-100 35 1398 1398 0 0 1-75 45 199 199 0 0 1-18 10 92 92 0 0 1-12 7l-8 5a123 123 0 0 0-13 8 360 360 0 0 0-47 30l-6 8c-3 5-3 7-3 11l3 12a5010 5010 0 0 1 15 53 358 358 0 0 0 11 11 465 465 0 0 0 39 26c8 5 8 5 24 8a2239 2239 0 0 0 96 13l1 64c0 63 0 63 3 64h15l21-4c9-2 11-2 13-5l8-13a11627 11627 0 0 0 39-82c3-4 3-4 32-14a19212 19212 0 0 0 88-29l2-7 1-77v-72l14-11a741 741 0 0 0 47-35c5-4 6-4 10-4a403 403 0 0 1 52 12 10474 10474 0 0 0 103 26c3 1 3 1 3 7a20022 20022 0 0 0-9 86c0 5 0 6 2 8s4 2 21 2c18 0 18 0 47-14a21040 21040 0 0 1 88-43c3 0 3 0 3 6a666 666 0 0 1 3 65 4474 4474 0 0 1 3 60 11031 11031 0 0 1 82 53c5 3 5 3 5 12a1590 1590 0 0 0-4 66c0 5 0 5-10 9a1986 1986 0 0 1-61 22l-5 4-2 6-1 8 3 9a1698 1698 0 0 0 97 48 298 298 0 0 1-1 55l-14 2h-15l-11-4a1984 1984 0 0 1-115-39 1073 1073 0 0 1-5-31c0-7 0-7 9-13l11-9a268 268 0 0 0 14-17l2-11c0-8 0-8-4-12l-8-6c-4-2-6-2-10-2l-14 4c-8 4-8 4-11 13-2 7-2 8-5 8a4967 4967 0 0 1-94 15c-5 0-5 0-14-19-10-20-10-20-16-23l-12-5c-6-3-6-3-30-3s-24 0-32 6l-11 10c-4 4-4 4-4 22 0 16 0 19 2 21l21 8c16 6 22 7 34 9a494 494 0 0 1 20 5l-6 8a1072 1072 0 0 0-34 37l-9-9-9-10-19-6c-16-4-16-4-20-2l-18 17a5371 5371 0 0 1-68 67l-2 5-1 6c-1 3-1 3 1 6s2 3-2 5l-10 7a526 526 0 0 0-47 26 3202 3202 0 0 0-76 42c-11 6-11 7-33 29a23339 23339 0 0 0-108 113c-10 11-10 11-11 20a1877 1877 0 0 0-8 52c-1 5-1 5-31 24l-70 46c-39 27-39 27-57 44a5375 5375 0 0 1-51 52c-2 4-2 4-1 24a8040 8040 0 0 1 6 106c0 11 0 11-3 11l-16-6a9460 9460 0 0 1-66-32l-11-5v-41c0-40 0-40-3-41l-30-1a446 446 0 0 1-64-4 467 467 0 0 0-92 3l-46 1c-33 0-33 0-51 9a23060 23060 0 0 0-120 63l-6 9a373 373 0 0 0-20 36 537 537 0 0 1-22 40l-9 18c-4 6-6 13-10 25a3204 3204 0 0 0-18 73l7 17a13986 13986 0 0 1 31 66l8 4a949 949 0 0 1 58 7c42 5 42 5 46 3l10-6a491 491 0 0 1 33-23 4347 4347 0 0 0 126-84h3l5 19 8 27c2 11 2 11-3 21a1126 1126 0 0 1-35 67l-4 10 3 10c3 6 3 6 12 7a9572 9572 0 0 0 108 21 623 623 0 0 1 5 73 58042 58042 0 0 0 11 131 27258 27258 0 0 1 172 30c8 0 8 0 12-4a410 410 0 0 0 23-26 935 935 0 0 0 44-52 305572 305572 0 0 1 38-43l7-7 18 3a11602 11602 0 0 1 116 24c6 1 6 1 14 13a3030 3030 0 0 1 36 49c5 7 5 7 12 7l23-1a6129 6129 0 0 1 103-7l3-15 2-18c0-4 1-4 3-4l36 17c35 17 35 17 40 25a9293 9293 0 0 1 77 121c3 3 3 3 47 4l71 1 27 1 10 16a4035 4035 0 0 1 40 69c3 6 3 7 4 16a1976 1976 0 0 1 7 96c0 5 1 7 3 9l12 6a2094 2094 0 0 0 110 42l23 9c12 5 12 5 82 6l100 1 30 1 7 11a79621 79621 0 0 0 51 82 25467 25467 0 0 0 87 31c3 2 3 2 0 15l-9 40c-5 26-5 26-15 39a1150 1150 0 0 1-51 65 4622 4622 0 0 1-36 48 503 503 0 0 0-8 72 13133 13133 0 0 1-24 206 691 691 0 0 1-33 26l-32 26-19 15-26-1a5479 5479 0 0 1-91-2c-14 0-15 0-17 2l-2 4-1 3a477 477 0 0 0-29 50c-9 17-9 17-8 25a759 759 0 0 0 10 43 6928 6928 0 0 1 20 89c0 4 0 4-10 17a4300 4300 0 0 0-96 124 11356 11356 0 0 0-38 50 575 575 0 0 0-20 38l-16 28c-7 14-7 14-18 19a2850 2850 0 0 0-102 49c-20 10-22 10-33 12a3993 3993 0 0 1-78 13l-2 12a495 495 0 0 0 0 25 3584 3584 0 0 1 52 16c7 2 7 2 7 8l-3 20c-3 15-3 15-18 30a298 298 0 0 0-18 19v5c0 3 0 4-2 4l-9-2a24789 24789 0 0 0-66-15 2338 2338 0 0 1-133-38c-22-7-22-7-22-10l3-23 3-43c2-24 2-24-5-34a2599 2599 0 0 0-61-82c-11-15-11-15-11-20a1601 1601 0 0 1 15-88 90713 90713 0 0 0 14-84c0-2-2-4-3-5l-14-6-20-5-7-2Zm1955-1199h-96l-8 7a1264 1264 0 0 0-40 37c-3 2-3 2-87 2l-85 1-4 7-2 7h-48c-48 0-48 0-53-6a5335 5335 0 0 1-84-96 6430 6430 0 0 1-117-136l-11-12 1-33a17562 17562 0 0 0 2-160l5-4a379 379 0 0 1 24-9l6-5a349 349 0 0 0 10-53l2-9c0-3 0-4-3-6-2-3-2-3-24-3l-23-1a638 638 0 0 1-20-75c0-3 0-4 10-11a3862 3862 0 0 1 100-73 7427 7427 0 0 1 131-95l10-7v-129l7-4a2214 2214 0 0 0 94-53 2126 2126 0 0 0 20-12h16l20 3a1097 1097 0 0 0 123-1 700 700 0 0 0 53-29l13-7c7-4 9-4 18-5a6670 6670 0 0 1 200-16l36-3c10 0 10 0 10 3l1 64c0 56 0 61 2 63l23 8a13653 13653 0 0 1 179 47 429 429 0 0 1 35 24c3 2 6 3 20 3 15 0 15-1 17-3s2-4 2-35c0-33 0-33 2-34l20-2a18570 18570 0 0 0 54-7l6 16a2831 2831 0 0 1 52 185 5225 5225 0 0 0 17 78 9035 9035 0 0 1 16 101 2607 2607 0 0 1 15 189 2195 2195 0 0 1-15 318 2005 2005 0 0 1-105 419 664 664 0 0 1-28 70 2007 2007 0 0 1-189 345l-3-1-1-5c0-5 0-5-8-13a3235 3235 0 0 0-57-58 13035 13035 0 0 0-5-56c-2-22-2-22 3-33a6334 6334 0 0 1 71-135l6-15c0-3-1-5-4-11a2081 2081 0 0 0-60-107 14147 14147 0 0 1-92-164c-2-3-2-4-1-19a14988 14988 0 0 0 16-173l-4-4-25-3a6566 6566 0 0 0-106-12c-6-1-8-1-11-4l-26-27-23-23ZM48 1631a1173 1173 0 0 1-24-3v-10a842 842 0 0 1 14-73c1-1 2-1 4 2l7 9 9 14c4 7 4 7 3 18a3580 3580 0 0 1-8 41c-1 2-2 2-5 2Zm2839-459-50-24-11-5-4-26a55481 55481 0 0 0-14-99 4824 4824 0 0 1 18-50c4-11 4-11 20-15l54-12c37-8 37-8 55-5a14490 14490 0 0 1 96 18h2l2-3 2-9a4021 4021 0 0 0 9-43c1-4 1-4-2-7-2-2-6-3-23-7l-21-6a764 764 0 0 1 16-101l18-3a46185 46185 0 0 1 97-16c2 0 4-3 9-10a131 131 0 0 0 9-13l9-11a3474 3474 0 0 1 54-77c4-7 4-7 44-14a967 967 0 0 1 55-10c3-2 3-2 16 12a2374 2374 0 0 1 128 158 2610 2610 0 0 1 55 81c3 5 3 5 2 7-2 1-2 1-4-1-3-2-3-2-47-2-40 0-44 0-46 2l-3 4c-2 3-2 4 5 23a154206 154206 0 0 1 20 56c0 2 3 4 6 6l12 7a5918 5918 0 0 1 78 44c24 13 24 13 34 24l9 11-8 5-11 6c-5 3-5 3-5 38v35l-7 3a1013 1013 0 0 1-39 17c-11 4-11 4-27 0l-25-5c-9-2-9-2-13-9a9845 9845 0 0 0-23-34c0-2 0-2 17-2l37 2c21 1 21 1 24-1a72 72 0 0 0 11-16v-10c-1-7-1-7-7-11a460 460 0 0 0-40-29 21641 21641 0 0 0-120-81l-6-18c-2-9-5-16-6-17l-8-3h-8c-2 0-4 2-6 4a597 597 0 0 0-45 40c-7 7-8 7-11 7a734 734 0 0 1-61-12c-8-2-8-2-12 2l-18 23a11540 11540 0 0 1-82 106c-8 10-10 14-14 24a2764 2764 0 0 0-17 44 739 739 0 0 1-119 7l-60 1Zm-1828-127c31 0 31 0 36-4a292 292 0 0 0 27-28c2-2 2-4 2-21 0-18 0-18-4-21a877 877 0 0 0-46 5c-1 1-4 4-5 8-4 7-4 8-7 8l-11 2c-7 0-7 0-15 8-7 7-8 9-10 15l-3 13v10l3 4 33 1Zm-151-45a68 68 0 0 0 21-5 359 359 0 0 0 50-63 2834 2834 0 0 0 24-37l-1-9-3-8c-2-2-4-2-28-2-27 0-27 0-32 5a1685 1685 0 0 0-48 57 500 500 0 0 0-6 40c0 7 0 7 3 11l4 5 3 1 1 1s2 2 5 2l7 2Zm310-4c26 0 31 0 32-2 2-1 2-3 2-19s0-18-2-21l-7-4a258 258 0 0 0-63-13l-14 3-5 3-1 9 1 11 6 10 7 11 4 9c1 2 4 3 6 3h34Zm-143-46a367 367 0 0 0 25-5c4-1 8-2 14-6a656 656 0 0 0 26-19 229 229 0 0 0-1-42c-2-2-5-2-36-2-33 0-33 0-36 2-2 2-2 2-2 35 0 32 0 32 3 34 3 3 4 3 7 3Zm139-37 10-7 12-11c5-4 5-4 1-7a240 240 0 0 0-30-18c-1 0-4 2-10 9l-10 10c-1 2 0 3 3 6a279 279 0 0 0 24 18Zm-206-56 70-1 1-21-1-21c-1-2-2-3-5-3l-9-1c-4 0-4 0-5-12 0-10-1-12-2-13-2-2-9-2-44-2-42 0-42 0-52 4a5056 5056 0 0 0-36 15c-6 3-10 6-16 12-8 8-8 8-8 13l2 11c0 3 2 6 3 7a1107 1107 0 0 1 29 10c4 2 19 2 73 2Zm100-1a192 192 0 0 0 39-11 1525 1525 0 0 1-34-32c-4-4-6-5-7-4-2 1-3 1-3 21l1 23c0 3 0 3 4 3ZM813 708l7-1a125 125 0 0 1 12-5l11-5c4-1 9-4 11-6 3-2 4-5 6-10a172 172 0 0 0 7-29l3-14-3-9-6-8-15-5-16-3c-2-1-6 0-9 1a91 91 0 0 0-30 17c-4 4-7 7-10 13l-4 13c0 5 0 6 2 9a1296 1296 0 0 0 11 16c2 2 3 6 3 8l3 7 4 5 7 4 6 2Z"/></g></svg>